<?xml version="1.0" encoding="utf-8"?>
<!-- Generator: Adobe Illustrator 19.1.0, SVG Export Plug-In . SVG Version: 6.00 Build 0)  -->
<svg version="1.1" id="Layer_1" xmlns="http://www.w3.org/2000/svg" xmlns:xlink="http://www.w3.org/1999/xlink" x="0px" y="0px"
	 viewBox="0 0 250 224" enable-background="new 0 0 250 224" xml:space="preserve">
<g>
	<g>
		<polygon fill="#00518D" points="3.8,163.8 35.7,163.8 35.7,123.8 1,123.8 9.2,147.2 		"/>
		<polygon fill="#DBDCDD" points="3,166.4 35.7,166.4 35.7,163.8 3.8,163.8 		"/>
		<polygon fill="#CD2027" points="1,172.6 35.7,172.6 35.7,166.4 3,166.4 		"/>
		<polygon fill="#00518D" points="248.1,163.8 216.3,163.8 216.3,123.8 251,123.8 242.7,147.2 		"/>
		<polygon fill="#DBDCDD" points="249,166.4 216.3,166.4 216.3,163.8 248.1,163.8 		"/>
		<polygon fill="#CD2027" points="251,172.6 216.3,172.6 216.3,166.4 249,166.4 		"/>
	</g>
	<polygon fill="#FFFFFF" points="31.4,0.3 31.3,194.1 125.5,223.4 220.6,193.9 220.6,0.4 	"/>
	<path fill="#ADADAD" d="M220.3,0L220.3,0H31.6l0,0h-0.7l0,0v194.4l95.1,29.5l95.1-29.5V0l0,0H220.3z M220.3,193.6L126,223
		l-94.3-29.2V0.7h188.7L220.3,193.6z"/>
	
		<linearGradient id="SVGID_1_" gradientUnits="userSpaceOnUse" x1="52.6052" y1="-777.8528" x2="199.2948" y2="-987.3472" gradientTransform="matrix(1 0 0 -1 0 -785.4)">
		<stop  offset="0" style="stop-color:#A8A8A5"/>
		<stop  offset="0.149" style="stop-color:#BEBDBB"/>
		<stop  offset="0.4426" style="stop-color:#E9E8E7"/>
		<stop  offset="0.589" style="stop-color:#FFFFFF"/>
		<stop  offset="0.6966" style="stop-color:#EEEEEE"/>
		<stop  offset="0.838" style="stop-color:#E3E4E4"/>
		<stop  offset="1" style="stop-color:#E0E1E1"/>
	</linearGradient>
	<polygon fill="url(#SVGID_1_)" points="35.4,4.5 35.4,189.9 126,218 216.5,189.9 216.5,4.5 	"/>
	<g>
		<path fill="#ADADAD" d="M75.9,178.6c-0.6,1-1.5,1.6-2.5,1.8l4.4,8.6h-3.1l-3.9-8h-5.9v8h-2.7v-19h9.2c2.4,0,3.8,0.9,4.5,2.2
			c0.4,0.8,0.7,1.8,0.7,3.2C76.5,176.9,76.3,177.9,75.9,178.6z M73.5,173.8c-0.4-0.8-1.2-1.3-2.7-1.3H65c0,0,0,5.9,0,6h6.2
			c1.1,0,1.9-0.4,2.2-1c0.2-0.4,0.3-1.2,0.3-1.8C73.7,175,73.6,174.2,73.5,173.8z"/>
		<path fill="#ADADAD" d="M81.9,189H79l7.3-19h3.5l6.9,19h-2.9l-1.7-4.8h-8.4L81.9,189z M88.5,174.3l-0.5-1.6l-0.5,1.7l-2.9,7.4h6.6
			L88.5,174.3z"/>
		<path fill="#ADADAD" d="M110.1,189l-8.8-14.9V189h-2.7v-19h3.3l8.6,14.6V170h2.7v19H110.1z"/>
		<path fill="#ADADAD" d="M128.3,189l-7-8.9l-1.8,1.9v7h-2.8v-19h2.8v8.7l8.7-8.7h3.4l-8.2,8.3l8.4,10.7H128.3z"/>
		<path fill="#ADADAD" d="M133.7,189v-19h2.8v19H133.7z"/>
		<path fill="#ADADAD" d="M151.5,189l-8.8-14.9V189H140v-19h3.3l8.6,14.6V170h2.7v19H151.5z"/>
		<path fill="#ADADAD" d="M171.1,189l-0.1-2.3c-0.7,1.1-2.3,2.5-5.7,2.5c-4.2,0-8-1.8-8-9.7c0-5.7,2.1-9.7,8.3-9.7
			c5.6,0,7.7,3,7.7,6.6h-2.7c0-2.4-1.2-4.1-4.9-4.1c-3.6,0-5.6,1.8-5.6,7.3s1.7,7.3,5.6,7.3c2.8,0,4.5-1.5,5-3.1
			c0.1-0.3,0-2.6,0-2.7h-6.1v-2.4h8.7c0,0,0,4.3,0,5.4c0,2.3,0,5,0,5h-2.2V189z"/>
		<path fill="#ADADAD" d="M183.6,189.3c-4.8,0-7-1.5-7.8-3.9c-0.2-0.6-0.3-1.4-0.3-1.9h2.9c0,0.3,0.1,1,0.3,1.3
			c0.7,1.5,2.3,2.1,5,2.1c3.4,0,4.6-1.2,4.6-2.8c0-1.9-1.2-2.7-4.2-3.3c-0.7-0.1-1.8-0.4-2.8-0.6c-3.7-0.7-5.5-2.2-5.5-5.3
			c0-2.9,2.2-5.1,7.4-5.1c4.4,0,6.5,1.5,7.4,3.9c0.2,0.6,0.3,1.3,0.3,1.7H188c0-0.2,0-0.7-0.2-1.1c-0.7-1.5-1.8-2.1-4.8-2.1
			c-3.3,0-4.4,1.1-4.4,2.5c0,1.7,1,2.4,4.3,3c0.9,0.2,2,0.4,2.7,0.5c3.5,0.6,5.5,2.2,5.5,5.3C191,187.1,188.7,189.3,183.6,189.3z"/>
	</g>
	<g>
		<path fill="#323333" d="M63.5,100.6c-1.3,3.8-4.5,5.7-8.8,5.7c-4,0-6.5-1.2-8.3-4.3c-1.7-2.9-2.2-8.8-2.2-13.9
			c0-6.2,0.5-10.2,1.8-13c1.5-3.2,4.4-4.8,8.7-4.8c4.4,0,7.5,2,8.6,5.1c0.8,2.4,1.1,4.7,1.1,7.4h-4c0-1.8-0.4-4.8-1-6.2
			c-0.8-1.7-2.4-2.5-4.8-2.5c-2.5,0-4.1,0.8-5,2.7c-1.1,2.4-1.3,6.9-1.3,11.4c0,4.3,0.6,10.2,1.4,11.9c1.1,2.1,3,2.8,5,2.8
			c2.2,0,4.1-0.8,4.9-3c0.8-2,0.9-4.1,0.9-5.8h4C64.6,96.3,64.3,98.5,63.5,100.6z"/>
		<path fill="#323333" d="M86.1,75.2c1.2,2.8,1.6,7.1,1.6,12.9c0,6.4-0.5,10.3-1.7,13.1c-1.6,3.5-4.1,5.1-8.5,5.1
			c-4.5,0-7.3-1.8-8.6-5.1c-1-2.5-1.7-6.2-1.7-13c0-5.8,0.5-9.9,1.7-12.9c1.2-2.9,4-5,8.6-5C81.9,70.2,84.7,72.1,86.1,75.2z
			 M82.3,100c0.9-2,1.4-5.9,1.4-11.8c0-3.6-0.3-9.1-1.2-11.2c-0.7-1.7-2.4-3.1-5.1-3.1c-2.8,0-4.2,1.3-4.9,3
			c-0.9,2.1-1.2,7.6-1.2,11.3c0,4.1,0.2,9,1.2,11.5c0.9,2.3,3.1,3,4.9,3C79.7,102.8,81.5,101.8,82.3,100z"/>
		<path fill="#323333" d="M91.6,106V70.6h4v31.7h11.6v3.7H91.6z"/>
		<path fill="#323333" d="M110,106V70.6h4v31.7h11.7v3.7H110z"/>
		<path fill="#323333" d="M128.7,106V70.6h16.2v3.7h-12.2v12h11.5V90h-11.5v12.2H145v3.7h-16.3V106z"/>
		<path fill="#323333" d="M164,106l-0.2-2.8c-0.9,1.5-2.9,3.1-6.6,3.1c-6.8,0-9.7-4.3-9.7-18c0-11.9,1.8-18.1,10.1-18.1
			c7.3,0,9.2,5.6,9.2,11.8h-3.9c0-4.5-0.9-8.1-5.3-8.1c-5,0-6,3.2-6,14.4c0,10.6,0.8,14.5,6.1,14.5c3.2,0,5-1.9,5.6-4.3v-8.2h-6.8
			v-3.6H167c0,0,0,8.3,0,10.5c0,4.2,0,8.6,0,8.7L164,106L164,106z"/>
		<path fill="#323333" d="M170.9,106V70.6h16.2v3.7h-12.2v12h11.5V90h-11.5v12.2h12.3v3.7h-16.3V106z"/>
		<path fill="#323333" d="M199.3,106.3c-5.8,0-8.7-2.1-9.4-5.9c-0.3-1.7-0.3-3.2-0.3-4.3h3.9c0,0.8,0.1,2.5,0.3,3.5
			c0.4,2.4,2.5,3.3,5.6,3.3c3.4,0,5.2-1.6,5.2-5.1c0-3.3-1.2-5.2-5-7.5c-0.8-0.5-2.4-1.5-3.5-2.2c-4-2.5-6.5-5-6.5-9.8
			c0-4.7,3-8,9.2-7.9c5.7,0,8.4,2.4,9.2,6.5c0.3,1.3,0.2,2.5,0.2,3.6h-4c0-0.6,0-2-0.1-2.9c-0.5-2.5-2-3.7-5.4-3.7
			c-3.5,0-4.9,1.6-4.9,4.4c0,2.9,1.2,4.5,5.1,6.9c1.1,0.7,2.5,1.6,3.3,2c4.1,2.5,6.5,5.2,6.5,10.2
			C208.7,103.2,205.4,106.3,199.3,106.3z"/>
	</g>
	<g>
		<path fill="#323333" d="M50.5,56.5V18.7h-6.2v-6.3h16.8c4.6,0,8.1,0.3,10.4,0.8c2.3,0.6,4.3,2,6.1,4.2c1.8,2.3,2.6,4.9,2.6,8
			c0,2.3-0.5,4.5-1.6,6.3C77.5,33.6,76,35,74,36c2.8,1,5,2.6,6.5,4.8s2.3,4.8,2.3,7.7c0,2.5-0.6,4.7-1.7,6.8s-2.6,3.6-4.5,4.7
			c-1.9,1.1-3.9,1.9-6.1,2.2c-2.2,0.4-5.2,0.6-9,0.6H44.3v-6.3H50.5z M58.1,33.3h4.8c3.6,0,6.2-0.6,7.6-1.9c1.4-1.3,2.2-3.1,2.2-5.6
			c0-4.8-3.3-7.2-9.8-7.2h-4.8V33.3z M58.1,56.5H61c3.7,0,6.5-0.2,8.2-0.6c1.7-0.4,3.2-1.3,4.3-2.6c1.1-1.4,1.6-3.2,1.6-5.3
			c0-2-0.5-3.6-1.6-5c-1.1-1.3-2.4-2.2-4.1-2.7c-1.7-0.4-4-0.7-7-0.7H58L58.1,56.5L58.1,56.5z"/>
		<path fill="#323333" d="M90.1,56.5V18.7h-6.5v-6.3h41.9v15.2h-6.2v-8.9H97.8v15h18.7V40H97.8v16.5h21.5v-9.2h6.2v15.5H83.6v-6.3
			H90.1z"/>
		<path fill="#323333" d="M130.1,63V44.7h6.3v4.5c3,5.5,7,8.2,11.9,8.2c2.5,0,4.6-0.8,6.3-2.3s2.6-3.5,2.6-6c0-2.4-0.7-4.1-2.1-5.2
			c-1.4-1.1-4-2.1-7.9-3.1c-4.5-1.2-7.9-2.4-10-3.4s-3.9-2.6-5.2-4.6s-1.9-4.4-1.9-7.1c0-4.2,1.4-7.6,4.2-10.1s6.4-3.8,10.6-3.8
			c4,0,7.8,1.3,11.2,3.9v-3.4h6.2v15.3h-6.2v-3.5c-2.6-3.9-6.2-5.8-10.7-5.8c-2.8,0-4.9,0.6-6.3,1.9c-1.5,1.3-2.2,2.8-2.2,4.6
			c0,1.4,0.4,2.5,1.1,3.6c0.7,1,1.7,1.8,2.9,2.3s3.4,1.2,6.9,2c4.4,1.2,7.7,2.2,9.7,3.2s3.7,2.7,5.2,5s2.2,5,2.2,8.1
			c0,4.3-1.5,7.9-4.6,10.7c-3,2.8-6.8,4.2-11.3,4.2c-4.6,0-8.7-1.7-12.4-5V63H130.1z"/>
		<path fill="#323333" d="M183.7,56.7V18.9h-10.4v12.9h-6.2V12.5H208v19.2h-6.2V18.9h-10.4v37.8h6.6V63h-20.8v-6.3H183.7z"/>
	</g>
	<g>
		<polygon fill="#333333" points="18.8,162.3 30.9,172.6 30.9,162.3 		"/>
		<g>
			<polygon fill="#333333" points="233.1,162.3 221,172.6 221,162.3 			"/>
			<rect x="18.8" y="113.5" fill="#005FA7" width="214.3" height="40"/>
			<rect x="18.8" y="153.5" fill="#FFFFFF" width="214.3" height="2.6"/>
			<rect x="18.8" y="156.1" fill="#ED1C25" width="214.3" height="6.2"/>
			<g>
				<g id="U.S.News_5_">
					<path fill="#FFFFFF" d="M48.6,154.2c-7.6,0-13.2-2.8-13.2-10c0-0.7,0-20.8,0-20.8h6.7c0,0,0,19.7,0,20.3c0,3.2,2.4,5.1,6.7,5.1
						c3.8,0,6.5-1.9,6.5-5c0-0.6,0-20.3,0-20.3H62c0,0,0,20.6,0,21.2C61.9,151,56.4,154.2,48.6,154.2z"/>
					<path fill="#FFFFFF" d="M60.3,153.8v-6.2h5.9v6.2H60.3z"/>
					<path fill="#FFFFFF" d="M80.7,154.2c-9.2,0-12.5-2.8-13.7-6.6c-0.3-1-0.4-2.5-0.4-3.1h6.9c0,0.5,0.2,1.5,0.4,1.9
						c0.8,1.8,2.8,2.5,6.9,2.5c4.6,0,6.2-1.3,6.2-3.3c0-2.5-1.3-3.4-6.2-4.3c-0.9-0.2-3.1-0.6-4.5-0.8c-5.9-1.1-9.6-3.8-9.6-8.9
						c0-5.2,4.2-8.6,13.1-8.6c7.6,0,11.2,2.7,12.7,6.5c0.4,1,0.7,2.2,0.7,2.9h-6.9c0-0.3-0.2-1-0.4-1.5c-0.8-1.7-2.5-2.6-6.3-2.6
						c-5,0-6,1.1-6,2.8c0,2.2,1.8,3.1,6.8,4.1c1.5,0.3,3.5,0.7,4.2,0.8c6,1.2,9.2,3.7,9.2,8.9C93.7,150.5,89.4,154.2,80.7,154.2z"/>
					<path fill="#FFFFFF" d="M92.2,153.8v-6.2h6v6.2H92.2z"/>
					<path fill="#FFFFFF" d="M118.8,153.8l-12.2-20.6v20.6h-6.4v-30.4h7.7l11.7,19.6v-19.6h6.4v30.4H118.8z"/>
					<path fill="#FFFFFF" d="M149,152.1c-2,1.3-4.7,2-8.3,2c-5,0-9-1.5-11.2-4.9c-1.1-1.8-1.7-4-1.7-6.8c0-2.6,0.7-4.9,2-6.6
						c2.2-3.1,6-5,10.9-5c5.1,0,8.7,1.9,10.6,4.8c1.7,2.4,2.3,5.7,1.9,9.1h-19c0,1,0.5,1.8,1.2,2.7c0.9,1,2.8,1.7,5.2,1.7
						c1.8,0,3.2-0.3,4.1-0.7c1.2-0.5,1.8-1.3,1.9-1.8h6.4C152.6,148.6,151.3,150.7,149,152.1z M145.7,137.8
						c-0.9-0.9-2.5-1.7-4.9-1.7c-2.3,0-4,0.6-5.1,1.6c-0.8,0.7-1.4,2-1.4,2.7h12.6C146.8,139.7,146.5,138.6,145.7,137.8z"/>
					<path fill="#FFFFFF" d="M185.2,153.8h-7.7c0,0-4.4-12.9-4.5-13.6c0-0.3-0.3-1.6-0.3-1.6s-0.2,1.3-0.3,1.6
						c0,0.8-4.4,13.7-4.4,13.7h-7.8l-8-22.4h6.8l5.4,16.7l4.9-16.7h7.3l5.1,16.7l5.3-16.7h6.4L185.2,153.8z"/>
					<path fill="#FFFFFF" d="M205.3,154.2c-7.6,0-11.2-1.5-12.1-5.2c-0.2-0.9-0.2-1.5-0.2-2.2h6.5c0,0.3,0,0.7,0.2,1.1
						c0.4,1.1,2.1,1.3,5.7,1.3c3.7,0,4.9-0.7,4.9-2s-1.3-1.6-4.7-2c-0.9-0.1-3.5-0.5-4.9-0.7c-4.9-0.7-7.3-2.9-7.3-7.1
						c0-4,3.6-6.6,10.8-6.6c6.2,0,10,1.6,11.2,4.8c0.3,0.9,0.4,2.2,0.4,2.7h-6.3c0-0.2-0.1-0.9-0.3-1.2c-0.4-0.6-1.6-1.1-4.7-1.1
						c-3.6,0-4.7,0.6-4.7,1.6s0.7,1.3,3.9,1.8c1.3,0.2,4.4,0.7,5.2,0.8c5.4,0.8,7.8,2.8,7.8,7C216.6,151.8,213.1,154.2,205.3,154.2z
						"/>
				</g>
				<g id="_x26__World_Report_5_">
					<path fill="#FFFFFF" d="M133.3,127.5c0.2-0.3,0.3-0.6,0.3-0.9h1.7c0,0.8-0.3,1.4-0.8,1.9c0.4,0.3,0.9,0.7,1.3,1h-2.3
						c-0.1-0.1-0.2-0.2-0.3-0.2c-0.5,0.2-1.1,0.3-1.7,0.3c-1.5,0-2.8-0.3-2.8-1.4c0-0.1,0-0.2,0-0.3c0-0.7,0.7-1.1,1.4-1.5
						c-0.4-0.5-0.5-0.9-0.5-1.3c0-0.1,0-0.2,0-0.3c0-0.8,0.8-1.5,2-1.5s1.8,0.7,1.9,1.4c0,0.1,0,0.2,0,0.3c0,0.8-0.6,1.3-1.2,1.7
						C132.6,126.9,132.9,127.2,133.3,127.5z M130.5,127.9c0,0.3,0.3,0.4,0.9,0.4c0.2,0,0.4,0,0.5-0.1c-0.3-0.3-0.7-0.6-1-0.8
						C130.7,127.5,130.5,127.7,130.5,127.9z M132,125.1L132,125.1c0-0.3-0.1-0.5-0.4-0.5c-0.3,0-0.4,0.2-0.4,0.4c0,0,0,0.1,0,0.2
						c0,0.2,0.1,0.4,0.2,0.6C131.8,125.5,132,125.3,132,125.1z"/>
					<path fill="#FFFFFF" d="M145,129.4h-2c0,0-0.9-3.5-0.9-3.7c0,0.2-0.9,3.7-0.9,3.7h-2l-1.7-6.1h2c0,0,0.9,3.8,0.9,4
						c0-0.2,0.9-4,0.9-4h1.9c0,0,0.9,3.8,0.9,4c0-0.2,0.9-4,0.9-4h1.8L145,129.4z"/>
					<path fill="#FFFFFF" d="M153.3,126.3c0,2.1-1,3.2-3.3,3.2c-2.2,0-3.3-1.1-3.3-3.2c0-2,1-3.1,3.3-3.1
						C152.4,123.2,153.3,124.3,153.3,126.3z M151.4,126.4c0-1.2-0.3-1.7-1.4-1.7c-1,0-1.4,0.5-1.4,1.7c0,1.3,0.5,1.7,1.4,1.7
						S151.4,127.7,151.4,126.4z"/>
					<path fill="#FFFFFF" d="M159.8,126.4c-0.2,0.3-0.5,0.5-0.8,0.6l1.4,2.4h-2.1l-1.1-2.1h-1.3v2.1h-1.7v-6.1h3.9
						c0.8,0,1.3,0.2,1.7,0.6c0.2,0.3,0.4,0.7,0.4,1.3C160,125.8,159.9,126.1,159.8,126.4z M158.1,125c-0.1-0.2-0.3-0.3-0.5-0.3H156
						v1.2h1.6c0.2,0,0.4-0.1,0.5-0.2c0-0.1,0.1-0.3,0.1-0.4C158.2,125.3,158.2,125.1,158.1,125z"/>
					<path fill="#FFFFFF" d="M161.3,129.4v-6.1h1.9v4.6h2.9v1.5H161.3z"/>
					<path fill="#FFFFFF" d="M170.5,129.4h-3.4v-6.1h3.4c1.1,0,1.8,0.3,2.2,0.8s0.4,1,0.4,2.1c0,1.3-0.1,1.8-0.4,2.3
						C172.3,129.1,171.6,129.4,170.5,129.4z M171.2,126.3c0-0.4,0-1-0.2-1.2c-0.2-0.3-0.5-0.3-0.9-0.3h-1.2v3.2h1.2
						c0.5,0,0.7-0.1,0.9-0.3C171.2,127.5,171.2,126.8,171.2,126.3z"/>
					<path fill="#FFFFFF" d="M181.8,126.4c-0.2,0.3-0.5,0.5-0.8,0.6l1.4,2.4h-2.1l-1.1-2.1h-1.3v2.1h-1.7v-6.1h3.9
						c0.8,0,1.3,0.2,1.7,0.6c0.2,0.3,0.4,0.7,0.4,1.3C182,125.8,181.9,126.1,181.8,126.4z M180.1,125c-0.1-0.2-0.3-0.3-0.5-0.3H178
						v1.2h1.6c0.2,0,0.4-0.1,0.5-0.2c0-0.1,0.1-0.3,0.1-0.4C180.2,125.3,180.2,125.1,180.1,125z"/>
					<path fill="#FFFFFF" d="M183.4,129.4v-6.1h5.2v1.4h-3.4v0.9h3.2v1.5h-3.2v0.9h3.4v1.4H183.4z"/>
					<path fill="#FFFFFF" d="M195.3,126.9c-0.4,0.4-0.9,0.6-1.7,0.6c-0.2,0-1.9,0-1.9,0v1.9h-1.9v-6.1h3.8c0.7,0,1.3,0.2,1.6,0.5
						c0.4,0.3,0.6,0.8,0.6,1.6C195.7,126.1,195.6,126.6,195.3,126.9z M193.8,125c-0.1-0.2-0.3-0.3-0.6-0.3h-1.5v1.4h1.5
						c0.4,0,0.5-0.1,0.6-0.3c0.1-0.1,0.1-0.2,0.1-0.4C193.9,125.3,193.8,125.1,193.8,125z"/>
					<path fill="#FFFFFF" d="M202.9,126.3c0,2.1-1,3.2-3.3,3.2c-2.2,0-3.3-1.1-3.3-3.2c0-2,1-3.1,3.3-3.1
						C202,123.2,202.9,124.3,202.9,126.3z M201,126.4c0-1.2-0.3-1.7-1.4-1.7c-1,0-1.4,0.5-1.4,1.7c0,1.3,0.5,1.7,1.4,1.7
						S201,127.7,201,126.4z"/>
					<path fill="#FFFFFF" d="M209.4,126.4c-0.2,0.3-0.5,0.5-0.8,0.6l1.4,2.4h-2.1l-1.1-2.1h-1.3v2.1h-1.8v-6.1h3.9
						c0.8,0,1.3,0.2,1.7,0.6c0.2,0.3,0.4,0.7,0.4,1.3C209.6,125.8,209.5,126.1,209.4,126.4z M207.7,125c-0.1-0.2-0.3-0.3-0.5-0.3
						h-1.6v1.2h1.6c0.2,0,0.4-0.1,0.5-0.2c0-0.1,0.1-0.3,0.1-0.4C207.8,125.3,207.8,125.1,207.7,125z"/>
					<path fill="#FFFFFF" d="M214,124.8v4.6h-1.9v-4.6h-1.9v-1.5h5.8v1.5L214,124.8z"/>
				</g>
			</g>
		</g>
	</g>
</g>
</svg>
